<?xml version="1.0" standalone="no"?>
<!DOCTYPE svg PUBLIC "-//W3C//DTD SVG 20010904//EN"
 "http://www.w3.org/TR/2001/REC-SVG-20010904/DTD/svg10.dtd">
<svg version="1.0" xmlns="http://www.w3.org/2000/svg"
 width="1080.000000pt" height="1080.000000pt" viewBox="0 0 1080.000000 1080.000000"
 preserveAspectRatio="xMidYMid meet">
<metadata>
Created by potrace 1.14, written by Peter Selinger 2001-2017
</metadata>
<g transform="translate(0.000000,1080.000000) scale(0.100000,-0.100000)"
fill="#000000" stroke="none">
<path d="M1185 10725 c-3 -41 -4 -79 0 -85 5 -8 9 -513 5 -652 0 -10 -8 -26
-18 -36 -9 -9 -30 -39 -45 -65 -20 -34 -34 -47 -51 -47 -12 0 -32 -11 -44 -25
-12 -14 -31 -25 -43 -25 -11 0 -29 -5 -40 -11 -13 -6 -148 -12 -362 -16 -402
-6 -465 -8 -534 -18 l-53 -8 0 -223 0 -224 83 -2 c45 -1 275 -2 512 -3 237 -1
452 -5 478 -10 l49 -8 -5 -66 c-7 -94 -24 -190 -42 -231 -24 -57 -82 -302 -95
-405 -24 -184 -31 -220 -47 -246 -89 -139 -149 -214 -244 -307 -60 -57 -106
-109 -103 -113 9 -16 63 -10 101 11 21 11 43 20 50 20 7 0 20 8 30 19 10 10
39 23 64 29 26 7 70 27 99 47 102 69 128 38 129 -159 1 -70 20 -201 51 -348 6
-27 15 -72 21 -100 6 -29 19 -82 29 -118 10 -36 26 -94 35 -130 27 -106 69
-243 82 -270 7 -14 13 -30 13 -36 0 -6 28 -67 63 -135 l62 -124 3 -185 c2
-140 -1 -203 -13 -260 -9 -41 -19 -96 -24 -122 -4 -25 -12 -52 -18 -60 -6 -7
-16 -33 -23 -57 -6 -25 -29 -76 -51 -114 -37 -65 -49 -107 -31 -107 18 0 241
118 287 152 65 47 198 184 219 226 9 17 21 32 26 32 6 0 10 6 10 13 0 8 9 22
21 33 21 19 21 18 44 -8 36 -42 239 -412 278 -508 11 -25 46 -101 79 -170 97
-202 112 -242 142 -374 7 -28 7 -28 21 -9 22 31 29 93 29 258 1 179 5 183 89
103 30 -29 76 -73 102 -97 32 -30 45 -49 42 -62 -4 -15 0 -19 18 -19 32 0 87
-25 124 -56 24 -19 31 -34 31 -60 0 -19 5 -34 10 -34 6 0 10 5 10 10 0 22 77
8 135 -26 95 -54 225 -115 259 -120 l31 -5 -35 31 c-19 17 -66 49 -103 72 -37
22 -100 71 -139 109 -62 60 -70 71 -66 98 4 29 2 31 -26 31 -41 0 -123 81
-250 248 -107 139 -140 193 -149 239 -13 67 8 73 73 22 37 -29 250 -128 279
-130 29 -1 75 -35 81 -59 9 -36 30 -37 30 -1 0 16 -4 33 -10 36 -5 3 -10 14
-10 24 0 17 -27 82 -53 126 -60 101 -202 251 -456 481 -46 42 -141 169 -186
250 -15 27 -31 54 -35 59 -14 19 -69 171 -79 220 -5 28 -12 118 -15 200 -4 83
-8 170 -11 195 -18 170 -28 240 -36 271 -12 46 -12 79 0 79 5 0 21 -13 34 -30
14 -16 30 -30 36 -30 5 0 18 -11 29 -25 11 -14 26 -25 35 -25 8 0 31 -13 51
-29 21 -17 56 -39 79 -51 23 -12 49 -25 57 -30 49 -30 259 -110 289 -110 9 0
22 -5 28 -11 12 -12 -37 -57 -112 -103 -52 -33 -154 -119 -226 -190 -53 -54
-69 -77 -70 -100 -6 -138 2 -168 40 -150 11 5 100 88 199 184 259 253 320 310
334 311 60 5 138 -29 173 -75 13 -18 40 -67 60 -111 20 -43 45 -91 56 -106 23
-33 17 -53 -27 -83 -40 -27 -214 -193 -214 -204 0 -5 -13 -28 -28 -53 -56 -89
-77 -156 -77 -254 -1 -49 -5 -107 -9 -127 -6 -30 -5 -38 5 -38 26 0 124 110
154 172 17 34 35 63 41 65 7 2 25 -22 40 -54 16 -32 32 -60 35 -63 3 -3 14
-21 24 -40 30 -59 86 -120 148 -161 32 -21 62 -39 66 -39 4 0 33 -23 64 -51
32 -28 61 -48 64 -45 4 4 7 32 7 63 1 45 -3 58 -18 67 -11 6 -27 19 -37 28
-10 9 -33 18 -51 20 -31 3 -33 5 -31 38 2 19 3 43 3 53 1 10 -20 50 -47 89
-26 39 -53 78 -58 87 -48 77 -81 104 -95 81 -11 -17 -56 -5 -64 17 -4 11 3 26
21 44 34 33 47 49 62 76 14 27 61 74 95 96 23 16 29 16 54 3 15 -8 35 -24 44
-35 10 -12 25 -21 33 -21 8 0 15 -7 15 -16 0 -9 9 -18 20 -21 11 -3 20 -12 20
-20 0 -28 126 -187 184 -233 38 -30 66 -39 66 -21 0 5 -6 16 -12 23 -7 7 -35
44 -63 81 -27 38 -62 82 -77 98 -16 16 -28 36 -28 44 0 9 -13 29 -29 46 -29
30 -49 97 -36 119 11 18 44 11 69 -17 14 -15 29 -23 33 -19 11 11 6 141 -6
164 -5 10 -6 24 -1 32 7 11 26 4 92 -34 46 -27 108 -67 138 -90 30 -23 76 -54
102 -69 26 -15 53 -33 60 -40 7 -7 27 -23 43 -36 112 -86 215 -213 234 -288
25 -98 30 -121 36 -173 4 -30 15 -98 25 -150 10 -52 18 -111 19 -130 0 -19 2
-87 5 -150 3 -63 8 -159 10 -214 4 -93 15 -132 30 -107 8 13 24 99 35 196 5
39 14 97 20 130 9 50 32 215 57 403 4 33 9 42 22 40 9 -2 18 -12 20 -23 2 -11
15 -44 28 -72 36 -79 89 -221 109 -288 9 -33 28 -85 41 -116 59 -142 129 -456
139 -629 7 -121 12 -150 24 -150 15 0 31 60 51 195 19 126 39 203 93 365 67
202 110 370 142 555 31 185 38 216 48 222 14 8 26 -16 32 -67 4 -25 11 -54 16
-65 5 -11 16 -47 24 -80 31 -125 74 -245 87 -245 12 0 10 21 -12 180 -23 162
-27 475 -9 595 6 39 15 97 19 130 4 33 16 116 26 185 15 101 19 188 19 460 0
184 -2 382 -4 440 -2 58 0 119 4 135 12 44 101 199 162 281 42 57 63 76 102
93 70 30 171 29 253 -3 100 -39 283 -144 347 -200 20 -17 56 -45 81 -61 92
-61 174 -154 223 -254 l47 -94 0 -121 c0 -183 -25 -285 -140 -576 -42 -107
-63 -176 -81 -265 -19 -98 -61 -187 -114 -241 -66 -67 -78 -73 -180 -80 -90
-7 -96 -10 -140 -68 -22 -29 -25 -43 -25 -118 0 -69 5 -99 30 -167 17 -46 37
-96 45 -112 8 -15 15 -38 15 -51 0 -13 6 -32 14 -43 23 -34 28 -141 12 -250
-13 -79 -48 -227 -86 -360 -12 -43 13 -88 26 -47 4 9 15 36 25 60 11 23 24 64
30 91 6 27 17 52 25 55 8 3 14 19 14 41 0 20 7 49 15 66 12 21 17 69 19 171 4
124 2 146 -15 177 -10 20 -22 51 -25 71 -6 39 -32 107 -49 130 -23 32 -35 89
-37 183 -1 53 0 99 3 101 6 6 59 14 159 22 50 5 83 13 99 26 13 10 28 18 34
18 5 0 15 7 22 16 10 15 15 12 35 -21 13 -21 37 -50 54 -65 17 -16 49 -45 71
-65 22 -20 50 -44 62 -52 13 -8 20 -20 17 -25 -4 -6 2 -8 15 -3 15 5 21 2 21
-9 0 -9 5 -16 12 -16 24 0 80 -74 86 -113 2 -21 9 -40 13 -43 5 -3 9 -11 9
-19 0 -7 12 -26 28 -42 31 -35 70 -169 79 -274 6 -74 -16 -208 -49 -297 -11
-29 -17 -56 -13 -60 18 -18 111 138 157 263 26 74 29 94 34 255 7 202 12 217
67 186 17 -11 41 -27 52 -37 28 -25 213 -120 318 -163 116 -48 260 -85 377
-97 110 -12 155 -30 256 -105 79 -59 144 -99 144 -90 0 4 -8 18 -17 32 -27 42
-52 87 -68 122 -9 18 -25 42 -36 53 -11 11 -18 26 -16 32 6 19 62 12 217 -28
171 -43 337 -75 396 -75 27 0 51 7 68 21 30 23 76 20 76 -6 0 -8 -3 -15 -7
-15 -5 0 -40 -26 -79 -58 -99 -81 -206 -152 -288 -192 -72 -34 -228 -86 -306
-100 -50 -9 -245 -59 -355 -91 -63 -19 -136 -48 -275 -111 -72 -33 -161 -88
-214 -132 l-50 -41 -171 -7 c-95 -4 -184 -12 -199 -18 -15 -5 -42 -10 -59 -10
-18 0 -62 -8 -99 -18 -69 -20 -89 -16 -115 17 -8 10 -13 55 -13 121 -1 58 -8
166 -15 240 -8 74 -19 227 -26 340 -6 113 -15 210 -21 217 -18 22 -45 15 -52
-13 -13 -48 -8 -134 23 -474 5 -52 12 -103 16 -113 4 -9 3 -23 -2 -30 -5 -6
-8 -70 -6 -142 4 -167 4 -157 1 -180 -3 -19 -25 -32 -60 -34 -12 -1 -16 4 -11
17 5 13 -1 11 -23 -8 -15 -14 -33 -30 -39 -36 -5 -7 -23 -15 -40 -19 -16 -5
-32 -9 -35 -10 -3 -1 -18 -5 -35 -10 -16 -4 -36 -14 -42 -23 -7 -8 -23 -16
-35 -17 -13 -1 -27 -11 -33 -23 -5 -12 -16 -22 -23 -22 -8 0 -32 -15 -53 -34
-24 -20 -55 -36 -79 -40 -22 -3 -40 -10 -40 -16 0 -5 -11 -21 -25 -36 l-24
-26 -12 25 c-10 21 -8 32 9 64 11 21 25 37 31 36 5 -2 8 4 5 12 -4 9 -1 22 6
30 6 8 9 18 6 24 -3 5 0 12 6 14 8 3 6 6 -4 6 -10 1 -18 6 -18 12 0 5 -4 8 -9
5 -5 -4 -11 -1 -13 5 -11 34 -68 -49 -68 -100 0 -30 -11 -51 -26 -51 -8 0 -15
1 -15 3 -8 14 -20 518 -25 1040 -7 804 4 976 67 1033 11 10 30 39 41 63 11 25
44 70 74 101 30 31 54 61 54 67 0 12 61 68 75 68 42 1 185 108 185 138 0 6 9
21 21 33 12 12 18 27 14 33 -10 16 -25 13 -32 -6 -9 -25 -121 -133 -138 -133
-7 0 -27 -13 -44 -29 -18 -17 -38 -28 -47 -24 -17 6 -18 -1 9 64 14 36 38 69
67 94 25 22 48 44 51 48 9 12 2 221 -9 299 -8 51 -17 76 -40 104 -45 55 -118
102 -169 110 -24 3 -53 15 -62 26 -16 16 -27 18 -77 13 -38 -4 -69 -15 -89
-29 -22 -17 -36 -21 -51 -15 -20 7 -21 3 -27 -72 -7 -84 -3 -118 19 -188 20
-60 31 -79 76 -134 l41 -49 -7 -65 c-4 -36 -11 -74 -16 -83 -5 -10 -12 -91
-15 -181 -6 -189 -21 -352 -40 -459 -22 -119 -26 -398 -15 -925 21 -1044 23
-1181 16 -1218 -5 -27 -26 -58 -72 -110 -36 -39 -80 -92 -97 -117 -28 -41
-156 -207 -222 -287 -35 -43 -55 -41 -85 8 -32 52 -166 165 -250 212 -36 20
-144 63 -240 96 -236 80 -261 90 -434 179 l-151 77 -175 0 c-129 0 -195 -5
-250 -17 -107 -24 -188 -38 -225 -38 -35 0 -57 20 -98 90 -55 94 -89 116 -205
136 -145 25 -234 44 -256 56 -11 6 -44 31 -72 55 -28 23 -56 43 -62 43 -7 0
-14 11 -18 25 -3 13 -12 29 -20 36 -23 19 -18 -27 6 -51 27 -27 25 -47 -7 -64
-16 -8 -53 -39 -84 -69 -59 -59 -104 -139 -149 -267 -33 -93 -53 -99 -82 -25
-16 43 -18 67 -14 175 2 69 7 139 10 155 5 25 2 22 -16 -15 -20 -40 -23 -60
-23 -175 0 -119 2 -134 24 -175 30 -54 33 -141 13 -290 -9 -66 -12 -186 -10
-390 l3 -295 34 -60 c42 -73 202 -235 291 -295 36 -23 83 -63 105 -89 22 -25
70 -76 108 -113 74 -75 81 -96 52 -178 -16 -46 -19 -142 -6 -205 17 -76 62
-250 82 -309 24 -75 24 -98 -2 -114 -21 -13 -159 -66 -214 -82 -52 -15 -159
-62 -177 -77 -38 -34 -78 -165 -97 -323 -7 -52 -17 -115 -22 -140 -6 -25 -17
-83 -24 -130 -30 -189 -37 -225 -45 -235 -4 -5 -22 -46 -39 -90 -18 -44 -40
-91 -50 -105 -10 -14 -24 -42 -31 -63 -8 -20 -18 -37 -22 -37 -4 0 -17 -17
-28 -38 -12 -20 -41 -64 -65 -97 -25 -33 -48 -66 -51 -73 -4 -8 -16 -24 -28
-36 -34 -35 -146 -183 -146 -194 0 -4 -14 -20 -30 -36 -17 -16 -30 -35 -30
-41 0 -6 -11 -18 -25 -25 -14 -7 -25 -22 -25 -32 0 -11 -5 -28 -10 -39 -11
-19 43 -19 4465 -19 l4475 0 0 2806 0 2805 -32 47 c-52 75 -56 80 -218 242
-148 148 -266 248 -339 284 -42 22 -207 26 -341 8 -210 -29 -453 -111 -635
-217 -38 -23 -84 -47 -102 -54 -18 -7 -38 -19 -44 -27 -15 -18 -60 -18 -102 0
-41 16 -137 127 -159 181 -17 41 -22 84 -38 325 -9 132 -8 135 13 153 16 14
30 17 57 12 19 -3 84 -8 143 -12 122 -6 152 4 94 32 -73 35 -158 133 -222 257
-40 77 -45 95 -45 150 1 35 10 104 21 153 31 141 49 316 49 486 0 239 3 243
210 254 149 8 272 30 335 60 28 13 70 29 95 37 78 23 60 64 -62 135 -43 25
-62 44 -79 78 -13 25 -31 53 -41 62 -10 9 -18 20 -18 26 0 5 -7 23 -15 40 -7
18 -32 78 -54 135 -23 56 -54 128 -71 159 -50 93 -43 104 100 153 52 18 100
36 105 40 6 3 30 12 54 19 24 7 60 23 80 35 20 12 49 28 65 36 33 17 54 45 42
57 -4 4 -65 11 -134 15 -148 7 -212 19 -305 56 -50 20 -69 33 -73 50 -8 29 7
46 86 97 36 23 71 49 79 58 7 10 20 17 28 17 8 0 38 13 67 29 52 29 52 29 237
31 101 0 211 3 244 6 33 2 159 6 280 8 121 2 316 5 433 7 l212 3 -2 236 -3
235 -115 -2 c-227 -5 -386 -5 -422 1 -21 3 -38 1 -38 -4 0 -5 -7 -7 -15 -4 -8
3 -25 -6 -40 -20 -14 -14 -41 -28 -60 -32 -26 -5 -37 -13 -41 -30 -4 -14 -14
-24 -24 -24 -9 0 -27 -9 -40 -20 -21 -18 -37 -20 -171 -20 -108 0 -149 -3
-153 -12 -3 -7 -3 -3 -1 9 3 12 1 24 -5 28 -35 22 30 363 86 448 28 43 30 100
3 105 -8 1 -50 -29 -92 -68 -151 -137 -433 -241 -542 -200 -28 10 -44 20 -147
88 -23 15 -81 65 -129 112 -77 75 -94 98 -143 197 -31 61 -59 126 -62 145 -6
30 -61 132 -91 169 -7 8 -13 24 -13 34 0 10 -8 36 -17 56 l-18 38 -3656 1
-3657 0 -7 -75z m-402 -972 c-13 -2 -33 -2 -45 0 -13 2 -3 4 22 4 25 0 35 -2
23 -4z m611 -529 c3 -9 4 -20 1 -25 -3 -5 -10 -41 -14 -81 -10 -91 -37 -152
-70 -156 -23 -4 -23 -3 -20 85 4 80 7 93 38 141 34 53 54 64 65 36z m120 -73
c3 -5 -3 -20 -13 -32 -18 -22 -20 -22 -26 -6 -13 33 22 67 39 38z m4374 -1722
c-4 -29 -33 -48 -49 -32 -16 16 6 53 32 53 15 0 20 -5 17 -21z m152 -34 c0
-21 -32 -27 -49 -10 -15 15 -14 18 3 30 21 16 46 4 46 -20z m-86 -37 c9 -34 8
-35 -19 -42 -15 -4 -25 -14 -25 -24 0 -15 -2 -15 -10 -2 -17 26 -12 78 8 83
33 9 40 7 46 -15z m-4704 -14 c0 -8 -4 -12 -10 -9 -5 3 -10 10 -10 16 0 5 5 9
10 9 6 0 10 -7 10 -16z m4770 -8 c0 -3 -4 -8 -10 -11 -5 -3 -10 -1 -10 4 0 6
5 11 10 11 6 0 10 -2 10 -4z m-174 -31 c9 -23 -3 -45 -21 -39 -20 8 -20 54 0
54 9 0 18 -7 21 -15z m177 -18 c16 -11 16 -14 1 -35 -20 -29 -77 -28 -82 1 -8
40 44 62 81 34z m-2700 -261 c19 -13 44 -27 55 -30 25 -8 57 -44 48 -53 -11
-12 -99 -31 -113 -26 -7 3 -13 11 -13 17 0 7 -11 27 -25 45 -19 26 -22 38 -14
52 13 24 19 24 62 -5z m757 -381 c11 -13 10 -14 -4 -9 -9 3 -16 10 -16 15 0
13 6 11 20 -6z m247 -732 c-3 -10 -5 -4 -5 12 0 17 2 24 5 18 2 -7 2 -21 0
-30z m497 -425 c3 -16 2 -28 -3 -28 -10 0 -21 47 -13 55 7 7 8 5 16 -27z m5
-158 c-1 -64 -3 -76 -9 -50 -4 19 -12 46 -17 59 -6 16 -6 38 0 64 15 59 27 26
26 -73z m961 -854 c0 -2 -7 -9 -15 -16 -12 -10 -15 -10 -15 4 0 9 7 16 15 16
8 0 15 -2 15 -4z"/>
<path d="M10234 10715 c0 -49 1 -71 3 -48 2 23 2 64 0 90 -2 26 -3 8 -3 -42z"/>
<path d="M10252 10708 c2 -51 8 -102 13 -112 7 -16 5 -18 -8 -13 -11 4 -17 1
-17 -8 0 -8 -4 -15 -10 -15 -5 0 -10 12 -10 27 0 25 -1 26 -16 11 -9 -9 -17
-31 -17 -50 -2 -74 6 -271 10 -250 2 12 9 22 14 22 6 0 10 34 9 83 -2 128 -3
126 25 133 27 7 55 -14 55 -40 0 -9 8 -16 18 -17 9 -1 24 -2 32 -3 22 -2 94
-42 109 -60 8 -9 26 -16 42 -16 15 0 31 -4 34 -10 3 -5 46 -10 96 -10 57 0 89
-4 89 -11 0 -6 10 -19 23 -30 l22 -18 -22 -1 c-14 0 -23 -6 -23 -15 0 -11 11
-15 40 -15 l40 0 0 85 0 85 -32 -1 c-18 0 -56 -4 -85 -8 -51 -7 -83 0 -83 19
0 6 9 10 20 10 11 0 20 5 20 11 0 6 21 9 53 8 28 -1 64 3 80 9 l27 12 0 140 0
140 -276 0 -275 0 3 -92z"/>
<path d="M10320 10385 c0 -8 5 -15 10 -15 6 0 10 7 10 15 0 8 -4 15 -10 15 -5
0 -10 -7 -10 -15z"/>
<path d="M5697 8007 c-35 -14 -33 -44 3 -38 14 2 57 4 95 5 82 1 108 12 80 33
-23 16 -137 16 -178 0z"/>
<path d="M5612 7919 c-32 -32 -43 -69 -19 -69 6 0 24 6 39 14 15 8 56 16 93
19 62 5 105 24 105 49 0 15 -68 9 -74 -7 -6 -17 -96 -22 -96 -5 0 6 5 10 10
10 6 0 10 5 10 10 0 21 -37 9 -68 -21z"/>
<path d="M6273 7404 c-3 -8 -1 -20 6 -27 8 -8 11 -4 11 16 0 30 -7 35 -17 11z"/>
<path d="M6210 7200 c0 -5 5 -10 10 -10 6 0 10 5 10 10 0 6 -4 10 -10 10 -5 0
-10 -4 -10 -10z"/>
<path d="M2705 6809 c-10 -14 -1 -21 19 -13 9 3 13 10 10 15 -7 12 -21 11 -29
-2z"/>
<path d="M2618 6746 c-39 -34 -48 -56 -24 -56 16 0 86 64 86 79 0 20 -24 11
-62 -23z"/>
<path d="M6038 6763 c-51 -8 -77 -82 -42 -117 16 -16 69 -21 99 -10 8 4 22 19
31 35 13 26 13 32 -1 59 -9 17 -20 30 -24 30 -5 0 -15 2 -23 3 -7 2 -25 2 -40
0z"/>
<path d="M2953 5525 c0 -33 2 -45 4 -27 2 18 2 45 0 60 -2 15 -4 0 -4 -33z"/>
<path d="M6321 5514 c0 -11 3 -14 6 -6 3 7 2 16 -1 19 -3 4 -6 -2 -5 -13z"/>
<path d="M2507 5167 c-4 -10 -7 -26 -7 -35 1 -15 2 -15 11 1 6 10 9 25 7 35
-3 16 -4 15 -11 -1z"/>
<path d="M2800 5094 c0 -8 5 -12 10 -9 6 4 8 11 5 16 -9 14 -15 11 -15 -7z"/>
<path d="M2777 5064 c-4 -4 -7 -14 -7 -23 0 -11 3 -12 11 -4 6 6 10 16 7 23
-2 6 -7 8 -11 4z"/>
<path d="M6240 4970 c0 -16 5 -30 10 -30 6 0 10 -13 10 -30 0 -23 4 -30 20
-30 16 0 20 7 20 30 0 27 3 30 30 30 17 0 30 5 30 10 0 6 -17 10 -38 10 -26 0
-41 6 -50 20 -18 29 -32 25 -32 -10z"/>
<path d="M2472 4973 c-13 -26 -23 -123 -12 -123 11 0 17 20 25 88 7 53 3 65
-13 35z"/>
<path d="M2711 4963 c-13 -28 -13 -28 8 -9 22 20 27 36 13 36 -5 0 -14 -12
-21 -27z"/>
<path d="M6073 4945 c-7 -8 -13 -26 -13 -40 0 -22 4 -25 30 -23 28 2 30 5 30
40 0 30 -4 38 -17 38 -10 -1 -24 -7 -30 -15z"/>
<path d="M2652 4898 c-14 -14 -16 -44 -3 -52 8 -5 31 35 31 54 0 14 -14 12
-28 -2z"/>
<path d="M6328 4863 c7 -3 16 -2 19 1 4 3 -2 6 -13 5 -11 0 -14 -3 -6 -6z"/>
<path d="M5917 4819 c-12 -44 10 -98 28 -69 3 6 1 10 -6 10 -8 0 -6 6 4 18 10
10 17 28 17 40 0 29 -36 30 -43 1z"/>
<path d="M6172 4827 c-15 -17 1 -42 23 -33 18 6 17 37 -1 43 -6 2 -16 -2 -22
-10z"/>
<path d="M2427 4803 c-4 -3 -7 -13 -7 -22 1 -13 3 -13 11 2 11 19 8 33 -4 20z"/>
<path d="M5916 4705 c4 -8 10 -12 15 -9 14 8 10 24 -6 24 -9 0 -12 -6 -9 -15z"/>
<path d="M0 120 l0 -120 55 0 55 0 0 40 c0 29 -4 40 -15 40 -11 0 -15 11 -15
39 0 22 4 41 9 43 6 2 5 18 -2 41 -11 34 -15 37 -49 37 l-38 0 0 -120z"/>
<path d="M240 20 c0 -18 6 -20 68 -19 59 1 64 2 40 12 -16 6 -28 14 -28 19 0
4 -18 8 -40 8 -33 0 -40 -3 -40 -20z"/>
</g>
</svg>
